<?xml version="1.0" standalone="no"?>
<!DOCTYPE svg PUBLIC "-//W3C//DTD SVG 20010904//EN"
 "http://www.w3.org/TR/2001/REC-SVG-20010904/DTD/svg10.dtd">
<svg version="1.0" xmlns="http://www.w3.org/2000/svg"
 width="200.000000pt" height="200.000000pt" viewBox="0 0 200.000000 200.000000"
 preserveAspectRatio="xMidYMid meet">

<g transform="translate(0.000000,200.000000) scale(0.100000,-0.100000)"
fill="#000000" stroke="none">
<path d="M77 1978 c-23 -14 -45 -38 -57 -63 -20 -40 -20 -63 -20 -919 l0 -878
22 -39 c14 -25 37 -46 63 -59 40 -20 62 -20 915 -20 853 0 875 0 915 20 26 13
49 34 63 59 l22 39 -2 890 c-3 886 -3 891 -24 919 -11 15 -36 38 -54 51 l-33
22 -886 0 -886 0 -38 -22z m1794 -107 l29 -29 0 -621 0 -621 -226 0 -226 0 29
33 c47 53 58 91 45 146 -8 31 -9 59 -2 86 15 64 13 67 -29 41 -33 -21 -47 -24
-92 -19 -37 4 -66 0 -90 -10 l-37 -15 -38 40 c-93 95 -225 127 -373 89 -60
-15 -88 -18 -102 -10 -10 5 -19 13 -19 17 0 4 52 25 115 46 75 26 115 45 115
54 0 11 -8 13 -31 8 l-30 -6 35 42 c36 41 46 68 26 68 -6 0 -21 -12 -33 -26
l-22 -25 0 40 c0 58 -19 55 -28 -4 -5 -27 -16 -66 -25 -85 -15 -31 -26 -38
-94 -60 -42 -14 -80 -29 -85 -33 -4 -5 8 -22 27 -38 28 -23 32 -31 21 -38 -11
-7 -27 1 -59 27 l-44 36 65 61 c77 71 95 96 136 194 36 85 35 81 16 81 -9 0
-22 -15 -30 -32 l-14 -33 -1 58 c0 44 -3 57 -15 57 -12 0 -15 -14 -15 -67 -1
-67 -1 -68 -15 -35 -8 17 -18 32 -23 32 -19 0 -21 -14 -7 -47 8 -20 15 -55 15
-78 0 -41 -4 -47 -75 -112 -41 -39 -75 -75 -75 -81 0 -6 8 -17 18 -24 10 -7
34 -26 52 -41 32 -27 32 -29 13 -42 -10 -7 -32 -32 -47 -54 l-29 -41 -209 0
c-221 0 -236 -4 -154 -41 l41 -18 -85 -3 -85 -3 52 -27 c51 -27 190 -58 261
-58 l35 0 -23 -25 c-23 -25 -26 -25 -177 -25 l-153 0 0 621 0 621 29 29 29 29
842 0 842 0 29 -29z m-1161 -1459 c45 -22 66 -64 54 -110 -14 -53 -52 -76
-134 -80 l-70 -4 0 106 0 106 58 0 c34 0 71 -7 92 -18z m250 -2 c0 -18 -7 -20
-55 -20 -52 0 -55 -1 -55 -25 0 -23 4 -25 45 -25 38 0 45 -3 45 -20 0 -17 -7
-20 -45 -20 -38 0 -45 -3 -45 -20 0 -18 7 -20 55 -20 48 0 55 -2 55 -20 0 -18
-7 -20 -80 -20 l-80 0 0 105 0 105 80 0 c73 0 80 -2 80 -20z m202 -82 c44 -99
45 -103 25 -106 -14 -3 -27 4 -35 17 -20 30 -107 31 -115 1 -3 -13 -14 -20
-31 -20 l-26 0 26 58 c14 31 35 78 46 105 16 36 26 47 43 47 19 0 29 -17 67
-102z m208 84 c45 -22 66 -64 54 -110 -14 -53 -52 -76 -134 -80 l-70 -4 0 106
0 106 58 0 c34 0 71 -7 92 -18z"/>
<path d="M610 325 l0 -65 35 0 c22 0 43 8 55 20 43 43 10 110 -55 110 l-35 0
0 -65z"/>
<path d="M1078 340 l-16 -40 29 0 c33 0 34 5 16 49 l-14 32 -15 -41z"/>
<path d="M1270 325 l0 -65 35 0 c22 0 43 8 55 20 43 43 10 110 -55 110 l-35 0
0 -65z"/>
</g>
</svg>
