<?xml version="1.0" standalone="no"?>
<!DOCTYPE svg PUBLIC "-//W3C//DTD SVG 20010904//EN"
 "http://www.w3.org/TR/2001/REC-SVG-20010904/DTD/svg10.dtd">
<svg version="1.0" xmlns="http://www.w3.org/2000/svg"
 width="200.000000pt" height="200.000000pt" viewBox="0 0 200.000000 200.000000"
 preserveAspectRatio="xMidYMid meet">

<g transform="translate(0.000000,200.000000) scale(0.100000,-0.100000)"
fill="#000000" stroke="none">
<path d="M77 1978 c-23 -14 -45 -38 -57 -63 -20 -40 -20 -63 -20 -919 l0 -878
22 -39 c14 -25 37 -46 63 -59 40 -20 62 -20 915 -20 853 0 875 0 915 20 26 13
49 34 63 59 l22 39 -2 890 c-3 886 -3 891 -24 919 -11 15 -36 38 -54 51 l-33
22 -886 0 -886 0 -38 -22z m1266 -97 c-3 -11 -10 -18 -17 -15 -7 3 -24 -5 -39
-16 -36 -29 -36 -69 2 -109 52 -56 128 -30 138 47 4 32 1 43 -18 61 -13 12
-29 19 -36 17 -15 -6 -15 -4 -7 18 5 14 29 16 164 16 l158 0 8 -97 c4 -54 4
-242 1 -418 -6 -282 -9 -329 -27 -395 -12 -41 -26 -93 -31 -115 -6 -22 -16
-47 -22 -55 -7 -8 -23 -36 -36 -62 -13 -27 -28 -48 -32 -48 -5 0 -9 -6 -9 -12
0 -7 -19 -32 -41 -55 l-40 -43 -599 0 -599 0 -22 23 c-12 12 -36 51 -53 87
l-31 65 0 290 c0 217 3 302 14 338 14 47 14 47 57 47 23 0 54 4 67 9 21 8 28
5 45 -19 28 -37 116 -80 165 -80 82 0 176 67 199 142 8 28 21 44 42 55 67 33
116 117 116 197 0 16 6 26 15 26 32 0 125 54 150 86 l26 34 149 0 c141 0 148
-1 143 -19z m-56 -88 c-3 -10 -5 -4 -5 12 0 17 2 24 5 18 2 -7 2 -21 0 -30z
m-958 -1388 c23 -22 -2 -36 -39 -22 -58 22 -107 -32 -82 -88 12 -25 51 -41 77
-31 9 3 15 18 15 36 0 23 4 30 20 30 17 0 20 -7 20 -44 0 -42 -2 -45 -35 -56
-130 -43 -215 121 -95 183 40 20 95 17 119 -8z m223 -77 c44 -99 45 -103 25
-106 -14 -3 -27 4 -35 17 -20 30 -107 31 -115 1 -3 -13 -14 -20 -31 -20 l-26
0 26 58 c14 31 35 78 46 105 16 36 26 47 43 47 19 0 29 -17 67 -102z m198 82
c0 -16 -7 -20 -30 -20 l-30 0 0 -85 c0 -84 0 -85 -25 -85 -25 0 -25 1 -25 85
l0 85 -30 0 c-23 0 -30 4 -30 20 0 18 7 20 85 20 78 0 85 -2 85 -20z m80 -25
l0 -45 45 0 45 0 0 45 c0 41 2 45 25 45 l25 0 0 -105 0 -105 -25 0 c-22 0 -25
4 -25 40 l0 40 -45 0 -45 0 0 -40 c0 -36 -2 -40 -25 -40 l-25 0 0 105 0 105
25 0 c23 0 25 -4 25 -45z m350 25 c0 -18 -7 -20 -55 -20 -52 0 -55 -1 -55 -25
0 -23 4 -25 45 -25 38 0 45 -3 45 -20 0 -17 -7 -20 -45 -20 -38 0 -45 -3 -45
-20 0 -18 7 -20 55 -20 48 0 55 -2 55 -20 0 -18 -7 -20 -80 -20 l-80 0 0 105
0 105 80 0 c73 0 80 -2 80 -20z m180 5 c39 -20 49 -68 22 -104 l-20 -28 20
-31 20 -32 -25 0 c-18 0 -31 9 -44 30 -11 19 -25 30 -40 30 -19 0 -23 -5 -23
-30 0 -25 -4 -30 -25 -30 l-25 0 0 105 0 105 55 0 c31 0 69 -7 85 -15z m240
-5 c0 -18 -7 -20 -55 -20 -52 0 -55 -1 -55 -25 0 -23 4 -25 45 -25 38 0 45 -3
45 -20 0 -17 -7 -20 -45 -20 -38 0 -45 -3 -45 -20 0 -18 7 -20 55 -20 48 0 55
-2 55 -20 0 -18 -7 -20 -80 -20 l-80 0 0 105 0 105 80 0 c73 0 80 -2 80 -20z
m180 5 c39 -20 49 -68 22 -104 l-20 -28 20 -31 20 -32 -25 0 c-18 0 -31 9 -44
30 -11 19 -25 30 -40 30 -19 0 -23 -5 -23 -30 0 -25 -4 -30 -25 -30 l-25 0 0
105 0 105 55 0 c31 0 69 -7 85 -15z"/>
<path d="M1228 1688 c-8 -13 -23 -44 -34 -71 -12 -29 -43 -71 -84 -112 l-65
-65 -108 -6 c-122 -8 -151 -20 -183 -80 -50 -93 -85 -157 -107 -192 -12 -20
-34 -60 -47 -88 -20 -42 -34 -55 -72 -73 -26 -12 -59 -37 -73 -56 -34 -44 -45
-129 -22 -174 8 -17 18 -44 22 -60 8 -37 63 -87 105 -96 60 -13 118 3 156 43
19 20 34 41 34 48 0 6 8 26 17 45 41 81 12 193 -62 239 l-34 21 17 32 c9 18
19 34 22 37 5 5 14 21 67 120 40 74 65 111 70 106 7 -7 27 -231 27 -301 0 -33
-7 -125 -16 -204 -11 -96 -13 -151 -7 -163 13 -24 55 -33 84 -18 19 10 25 23
30 69 3 31 10 88 15 126 5 39 12 96 15 128 8 69 20 74 28 10 22 -193 37 -295
46 -312 20 -36 68 -42 96 -11 20 22 19 31 -10 250 -12 90 -43 420 -45 476 0 6
29 39 64 74 83 82 156 222 136 260 -15 28 -63 27 -82 -2z m-613 -698 c3 -6 16
-7 29 -4 29 7 77 -32 100 -80 18 -38 23 -134 5 -103 -12 20 -77 50 -90 41 -5
-3 -9 4 -9 14 0 52 -73 51 -127 -2 -17 -17 -42 -39 -54 -50 l-22 -19 5 62 c5
70 27 102 93 132 46 21 61 23 70 9z"/>
<path d="M901 1661 c-120 -64 -44 -243 86 -200 90 29 98 156 11 200 -45 23
-54 23 -97 0z"/>
<path d="M468 340 l-16 -40 29 0 c33 0 34 5 16 49 l-14 32 -15 -41z"/>
<path d="M1270 354 c0 -34 1 -35 31 -32 63 6 61 68 -2 68 -27 0 -29 -3 -29
-36z"/>
<path d="M1690 354 c0 -34 1 -35 31 -32 63 6 61 68 -2 68 -27 0 -29 -3 -29
-36z"/>
</g>
</svg>
