<?xml version="1.0" standalone="no"?>
<!DOCTYPE svg PUBLIC "-//W3C//DTD SVG 20010904//EN"
 "http://www.w3.org/TR/2001/REC-SVG-20010904/DTD/svg10.dtd">
<svg version="1.0" xmlns="http://www.w3.org/2000/svg"
 width="200.000000pt" height="200.000000pt" viewBox="0 0 200.000000 200.000000"
 preserveAspectRatio="xMidYMid meet">

<g transform="translate(0.000000,200.000000) scale(0.100000,-0.100000)"
fill="#000000" stroke="none">
<path d="M77 1978 c-23 -14 -45 -38 -57 -63 -20 -40 -20 -63 -20 -914 l0 -873
21 -38 c12 -22 38 -46 58 -57 20 -10 37 -21 39 -25 2 -5 399 -8 882 -8 483 0
880 3 882 8 2 4 19 15 39 25 20 11 46 35 58 57 l21 38 -2 885 c-3 881 -3 886
-24 914 -11 15 -36 38 -54 51 l-33 22 -886 0 -886 0 -38 -22z m633 -1623 l0
-85 50 0 c43 0 50 -3 50 -20 0 -18 -7 -20 -75 -20 l-75 0 0 105 0 105 25 0
c25 0 25 -1 25 -85z m180 -20 l0 -105 -25 0 -25 0 0 105 0 105 25 0 25 0 0
-105z m86 92 c0 -1 11 -27 23 -57 13 -30 26 -59 30 -63 4 -4 20 24 35 63 24
59 31 70 52 70 27 0 28 8 -26 -120 -31 -73 -39 -85 -60 -85 -21 0 -29 12 -60
85 -56 132 -54 123 -23 115 16 -4 28 -7 29 -8z m344 -7 c0 -18 -7 -20 -55 -20
-52 0 -55 -1 -55 -25 0 -23 4 -25 45 -25 38 0 45 -3 45 -20 0 -17 -7 -20 -45
-20 -38 0 -45 -3 -45 -20 0 -18 7 -20 55 -20 48 0 55 -2 55 -20 0 -18 -7 -20
-80 -20 l-80 0 0 105 0 105 80 0 c73 0 80 -2 80 -20z"/>
</g>
</svg>
