<?xml version="1.0" standalone="no"?>
<!DOCTYPE svg PUBLIC "-//W3C//DTD SVG 20010904//EN"
 "http://www.w3.org/TR/2001/REC-SVG-20010904/DTD/svg10.dtd">
<svg version="1.0" xmlns="http://www.w3.org/2000/svg"
 width="200.000000pt" height="200.000000pt" viewBox="0 0 200.000000 200.000000"
 preserveAspectRatio="xMidYMid meet">

<g transform="translate(0.000000,200.000000) scale(0.100000,-0.100000)"
fill="#000000" stroke="none">
<path d="M77 1978 c-23 -14 -45 -38 -57 -63 -20 -40 -20 -63 -20 -919 l0 -878
22 -39 c14 -25 37 -46 63 -59 40 -20 62 -20 915 -20 853 0 875 0 915 20 26 13
49 34 63 59 l22 39 -2 890 c-3 886 -3 891 -24 919 -11 15 -36 38 -54 51 l-33
22 -886 0 -886 0 -38 -22z m582 -1608 c19 -33 38 -60 42 -60 4 0 22 27 41 60
25 46 38 60 55 60 22 0 23 -3 23 -105 l0 -105 -25 0 c-24 0 -25 3 -25 63 l0
62 -30 -52 c-17 -29 -35 -53 -40 -53 -5 0 -22 21 -37 48 l-28 47 -3 -57 c-3
-54 -5 -58 -27 -58 -25 0 -25 0 -25 105 0 102 1 105 23 105 16 0 31 -15 56
-60z m361 40 c0 -18 -7 -20 -55 -20 -52 0 -55 -1 -55 -25 0 -23 4 -25 45 -25
38 0 45 -3 45 -20 0 -17 -7 -20 -45 -20 -38 0 -45 -3 -45 -20 0 -18 7 -20 55
-20 48 0 55 -2 55 -20 0 -18 -7 -20 -80 -20 l-80 0 0 105 0 105 80 0 c73 0 80
-2 80 -20z m202 -82 c44 -99 45 -103 25 -106 -14 -3 -27 4 -35 17 -20 30 -107
31 -115 1 -3 -13 -14 -20 -31 -20 l-26 0 26 58 c14 31 35 78 46 105 16 36 26
47 43 47 19 0 29 -17 67 -102z m198 82 c0 -16 -7 -20 -30 -20 l-30 0 0 -85 c0
-84 0 -85 -25 -85 -25 0 -25 1 -25 85 l0 85 -30 0 c-23 0 -30 4 -30 20 0 18 7
20 85 20 78 0 85 -2 85 -20z"/>
<path d="M1138 340 l-16 -40 29 0 c33 0 34 5 16 49 l-14 32 -15 -41z"/>
</g>
</svg>
