<?xml version="1.0" standalone="no"?>
<!DOCTYPE svg PUBLIC "-//W3C//DTD SVG 20010904//EN"
 "http://www.w3.org/TR/2001/REC-SVG-20010904/DTD/svg10.dtd">
<svg version="1.0" xmlns="http://www.w3.org/2000/svg"
 width="200.000000pt" height="200.000000pt" viewBox="0 0 200.000000 200.000000"
 preserveAspectRatio="xMidYMid meet">

<g transform="translate(0.000000,200.000000) scale(0.100000,-0.100000)"
fill="#000000" stroke="none">
<path d="M77 1978 c-23 -14 -45 -38 -57 -63 -20 -40 -20 -63 -20 -919 l0 -878
22 -39 c14 -25 37 -46 63 -59 40 -20 62 -20 915 -20 853 0 875 0 915 20 26 13
49 34 63 59 l22 39 -2 890 c-3 886 -3 891 -24 919 -11 15 -36 38 -54 51 l-33
22 -886 0 -886 0 -38 -22z m492 -1608 c19 -33 38 -60 42 -60 4 0 22 27 41 60
25 46 38 60 55 60 22 0 23 -3 23 -105 l0 -105 -25 0 c-24 0 -25 3 -25 63 l0
62 -30 -52 c-17 -29 -35 -53 -40 -53 -5 0 -22 21 -37 48 l-28 47 -3 -57 c-3
-54 -5 -58 -27 -58 -25 0 -25 0 -25 105 0 102 1 105 23 105 16 0 31 -15 56
-60z m251 -45 l0 -105 -25 0 -25 0 0 105 0 105 25 0 25 0 0 -105z m137 45 l48
-60 3 60 c3 56 5 60 27 60 25 0 25 0 25 -105 0 -98 -1 -105 -20 -105 -12 0
-38 23 -67 60 l-48 60 -3 -60 c-3 -56 -5 -60 -27 -60 -25 0 -25 0 -25 105 0
98 1 105 20 105 12 0 38 -23 67 -60z m313 40 c0 -18 -7 -20 -55 -20 -52 0 -55
-1 -55 -25 0 -23 4 -25 45 -25 38 0 45 -3 45 -20 0 -17 -7 -20 -45 -20 -38 0
-45 -3 -45 -20 0 -18 7 -20 55 -20 48 0 55 -2 55 -20 0 -18 -7 -20 -80 -20
l-80 0 0 105 0 105 80 0 c73 0 80 -2 80 -20z m180 5 c39 -20 49 -68 22 -104
l-20 -28 20 -31 20 -32 -25 0 c-18 0 -31 9 -44 30 -11 19 -25 30 -40 30 -19 0
-23 -5 -23 -30 0 -25 -4 -30 -25 -30 l-25 0 0 105 0 105 55 0 c31 0 69 -7 85
-15z"/>
<path d="M1360 354 c0 -34 1 -35 31 -32 63 6 61 68 -2 68 -27 0 -29 -3 -29
-36z"/>
</g>
</svg>
