<?xml version="1.0" standalone="no"?>
<!DOCTYPE svg PUBLIC "-//W3C//DTD SVG 20010904//EN"
 "http://www.w3.org/TR/2001/REC-SVG-20010904/DTD/svg10.dtd">
<svg version="1.0" xmlns="http://www.w3.org/2000/svg"
 width="200.000000pt" height="200.000000pt" viewBox="0 0 200.000000 200.000000"
 preserveAspectRatio="xMidYMid meet">

<g transform="translate(0.000000,200.000000) scale(0.100000,-0.100000)"
fill="#000000" stroke="none">
<path d="M77 1978 c-23 -14 -45 -38 -57 -63 -20 -40 -20 -63 -20 -919 l0 -878
22 -39 c14 -25 37 -46 63 -59 40 -20 62 -20 915 -20 853 0 875 0 915 20 26 13
49 34 63 59 l22 39 -2 890 c-3 886 -3 891 -24 919 -11 15 -36 38 -54 51 l-33
22 -886 0 -886 0 -38 -22z m1794 -107 l29 -29 0 -621 0 -621 -595 0 -596 0 51
99 51 100 32 -11 c18 -6 35 -15 38 -20 11 -17 146 -38 245 -38 95 0 189 17
203 37 3 5 40 29 81 53 82 49 179 135 228 204 l32 45 -62 44 c-35 25 -79 52
-98 62 -19 10 -37 21 -40 25 -6 9 -147 65 -183 74 -78 18 -183 25 -248 16 -87
-13 -151 -42 -201 -94 -44 -46 -104 -161 -114 -221 l-7 -40 34 28 c119 97 199
131 332 143 56 5 94 2 153 -11 l79 -19 -116 -12 c-64 -6 -141 -20 -170 -29
-122 -40 -251 -150 -351 -300 -101 -150 -64 -135 -340 -135 l-238 0 0 621 0
621 29 29 29 29 842 0 842 0 29 -29z m-1232 -1456 c75 -38 33 -135 -59 -135
-27 0 -30 -3 -30 -30 0 -25 -4 -30 -25 -30 l-25 0 0 105 0 105 55 0 c31 0 69
-7 84 -15z m121 -70 l0 -85 50 0 c43 0 50 -3 50 -20 0 -18 -7 -20 -75 -20
l-75 0 0 105 0 105 25 0 c25 0 25 -1 25 -85z m292 -17 c44 -99 45 -103 25
-106 -14 -3 -27 4 -35 17 -20 30 -107 31 -115 1 -3 -13 -14 -20 -31 -20 l-26
0 26 58 c14 31 35 78 46 105 16 36 26 47 43 47 19 0 29 -17 67 -102z m145 42
l48 -60 3 60 c3 56 5 60 27 60 25 0 25 0 25 -105 0 -98 -1 -105 -20 -105 -12
0 -38 23 -67 60 l-48 60 -3 -60 c-3 -56 -5 -60 -27 -60 -25 0 -25 0 -25 105 0
98 1 105 20 105 12 0 38 -23 67 -60z m303 40 c0 -16 -7 -20 -30 -20 l-30 0 0
-85 c0 -84 0 -85 -25 -85 -25 0 -25 1 -25 85 l0 85 -30 0 c-23 0 -30 4 -30 20
0 18 7 20 85 20 78 0 85 -2 85 -20z"/>
<path d="M594 1750 c-95 -94 -171 -278 -162 -395 6 -71 45 -165 86 -208 15
-16 49 -40 76 -54 l49 -25 -7 24 c-45 159 -54 246 -36 342 7 37 14 66 15 64 2
-2 8 -46 15 -98 12 -106 46 -251 64 -275 10 -14 16 -10 43 28 18 24 44 80 59
123 22 66 25 92 22 154 -7 106 -62 230 -155 348 l-18 22 -51 -50z"/>
<path d="M550 354 c0 -34 1 -35 31 -32 63 6 61 68 -2 68 -27 0 -29 -3 -29 -36z"/>
<path d="M968 340 l-16 -40 29 0 c33 0 34 5 16 49 l-14 32 -15 -41z"/>
</g>
</svg>
